<svg data-name="Layer 1" xmlns="http://www.w3.org/2000/svg" xmlns:xlink="http://www.w3.org/1999/xlink" viewBox="0 0 209.76 209.76"><defs><linearGradient id="a" x1="-359.11" y1="-250.93" x2="363.77" y2="306.87" gradientUnits="userSpaceOnUse"><stop offset="0" stop-color="#25387c"/><stop offset="1" stop-color="#b3bcd4"/></linearGradient><linearGradient id="c" x1="-130.27" y1="-127.59" x2="308.88" y2="211.27" xlink:href="#a"/><linearGradient id="d" x1="-140.7" y1="-114.07" x2="298.45" y2="224.8" xlink:href="#a"/><linearGradient id="e" x1="-376.38" y1="-228.54" x2="346.49" y2="329.26" xlink:href="#a"/><linearGradient id="b" x1="150.77" y1="17.54" x2="-2.53" y2="301.07" gradientUnits="userSpaceOnUse"><stop offset="0" stop-color="#252c47" stop-opacity="0"/><stop offset="1" stop-color="#252c47"/></linearGradient><linearGradient id="f" x1="-159.03" y1="-90.32" x2="280.12" y2="248.55" xlink:href="#a"/><linearGradient id="g" x1="163.7" y1="24.53" x2="10.4" y2="308.06" xlink:href="#b"/><linearGradient id="h" x1="10.88" y1="69.7" x2="322.91" y2="230.33" gradientUnits="userSpaceOnUse"><stop offset="0" stop-color="#fccfa6"/><stop offset="1" stop-color="#ef7b12"/></linearGradient></defs><path d="M74.89 138.89v-32.73A10.56 10.56 0 0 1 85.45 95.6h10.28V22.31c-21.63 16.23-44.91 27-66.54 27 0 47.82 14.47 97.22 58.91 120.68a43.14 43.14 0 0 1-13.21-31.1z" fill="url(#a)" opacity=".8"/><path d="M95.73 82.61v13h2.84V80.9a19.61 19.61 0 1 1 39.22 0v14.7h13.12a10.45 10.45 0 0 1 5.8 1.74c.36-1.42.7-2.85 1-4.28 1.21-5.45 2.17-11 2.87-16.58a215.72 215.72 0 0 0 1.67-27.13c-21.63 0-44.92-10.81-66.55-27v60.3z" fill="url(#c)" opacity=".8"/><path d="M118.18 70.51A10.4 10.4 0 0 0 107.8 80.9v14.7h20.77V80.9a10.4 10.4 0 0 0-10.39-10.39z" fill="url(#d)" opacity=".8"/><path d="M95.73 173.73V95.6H85.45a10.56 10.56 0 0 0-10.56 10.56v32.73A43.14 43.14 0 0 0 88.1 170a91.5 91.5 0 0 0 5.7 2.82c.65.32 1.28.63 1.93.91z" fill="url(#e)" opacity=".8"/><path d="M95.73 173.73V95.6H85.45a10.56 10.56 0 0 0-10.56 10.56v32.73A43.14 43.14 0 0 0 88.1 170a91.5 91.5 0 0 0 5.7 2.82c.65.32 1.28.63 1.93.91z" fill="url(#b)"/><path d="M137.79 95.6V80.9a19.61 19.61 0 1 0-39.22 0v14.7h-2.84v78.13a100.68 100.68 0 0 0 20.37-11.65A96.65 96.65 0 0 0 132.23 147a107.77 107.77 0 0 0 14.22-21.61c.55-1.08 1.09-2.17 1.6-3.27a133.09 133.09 0 0 0 6.1-15.76c.95-3 1.79-6 2.56-9a10.45 10.45 0 0 0-5.8-1.74zm-9.22 0H107.8V80.9a10.39 10.39 0 1 1 20.77 0z" fill="url(#f)" opacity=".8"/><path d="M137.79 95.6V80.9a19.61 19.61 0 1 0-39.22 0v14.7h-2.84v78.13a100.68 100.68 0 0 0 20.37-11.65A96.65 96.65 0 0 0 132.23 147a107.77 107.77 0 0 0 14.22-21.61c.55-1.08 1.09-2.17 1.6-3.27a133.09 133.09 0 0 0 6.1-15.76c.95-3 1.79-6 2.56-9a10.45 10.45 0 0 0-5.8-1.74zm-9.22 0H107.8V80.9a10.39 10.39 0 1 1 20.77 0z" fill="url(#g)"/><path d="M112.8 90.93h-9.23v-15a19.61 19.61 0 1 1 39.22 0v15h-9.22v-15a10.39 10.39 0 1 0-20.77 0z" fill="#6e150c"/><path d="M124.76 177.16c23.46-.83 41.72-20.83 41.72-44.3v-31.7a10.56 10.56 0 0 0-10.57-10.56H90.45a10.56 10.56 0 0 0-10.56 10.56v32.73a43.29 43.29 0 0 0 44.87 43.27z" fill="url(#h)"/><path d="M136.14 127.3a13 13 0 1 0-20.28 10.7l-1.58 9.15a2.09 2.09 0 0 0 2.06 2.45H130a2.1 2.1 0 0 0 2.06-2.45l-1.55-9.15a12.94 12.94 0 0 0 5.63-10.7z" fill="#252c47"/><path d="M123.18 120.16c-13 0-12.58 10.7-11.9 12.27a13 13 0 0 0 4.58 5.56l-1.58 9.15a2.09 2.09 0 0 0 2.06 2.45H130a2.1 2.1 0 0 0 2.06-2.45l-1.55-9.14a13.12 13.12 0 0 0 4.75-6c.57-1.44.88-11.84-12.08-11.84z" fill="#484e66"/></svg>